<svg xmlns="http://www.w3.org/2000/svg" viewBox="0 0 120 120" width="32" height="32">
  <!-- Mascot Body -->
  <rect x="15" y="15" width="90" height="90" rx="18" fill="#FFFFFF" stroke="#2F4156" stroke-width="5" />
  <!-- Control Panel Line -->
  <line x1="15" y1="35" x2="105" y2="35" stroke="#2F4156" stroke-width="4" />
  <!-- Dials -->
  <circle cx="28" cy="25" r="3" fill="#567C8D" />
  <circle cx="38" cy="25" r="3" fill="#C8D9E6" />
  <circle cx="92" cy="25" r="4" fill="#2F4156" />
  <!-- Face -->
  <circle cx="42" cy="40" r="5.5" fill="#2F4156" />
  <circle cx="78" cy="40" r="5.5" fill="#2F4156" />
  <circle cx="44" cy="38" r="1.5" fill="#FFFFFF" />
  <circle cx="80" cy="38" r="1.5" fill="#FFFFFF" />
  <path d="M 52 48 Q 60 58 68 48" stroke="#2F4156" stroke-width="3" fill="none" stroke-linecap="round" />
  <circle cx="30" cy="46" r="4.5" fill="#FFA8A8" opacity="0.6" />
  <circle cx="90" cy="46" r="4.5" fill="#FFA8A8" opacity="0.6" />
  <!-- Washing Machine Drum -->
  <circle cx="60" cy="80" r="20" fill="#C8D9E6" fill-opacity="0.4" stroke="#2F4156" stroke-width="3.5" />
  <circle cx="60" cy="80" r="14" fill="#567C8D" fill-opacity="0.15" />
  <path d="M 50 80 Q 55 75 60 80 T 70 80" stroke="#C8D9E6" stroke-width="2.5" fill="none" stroke-linecap="round" />
  <!-- Feet -->
  <rect x="30" y="105" width="14" height="8" rx="4" fill="#2F4156" />
  <rect x="76" y="105" width="14" height="8" rx="4" fill="#2F4156" />
</svg>